<?xml version="1.0" encoding="UTF-8"?>
<svg width="17.5232067px" height="16.0118812px" viewBox="0 0 17.5232067 16.0118812" version="1.1" xmlns="http://www.w3.org/2000/svg" xmlns:xlink="http://www.w3.org/1999/xlink">
    <title>meera_gpt</title>
    <defs>
        <linearGradient x1="11.0652562%" y1="50.0033173%" x2="93.8769867%" y2="50%" id="linearGradient-1">
            <stop stop-color="#1A389C" offset="0%"></stop>
            <stop stop-color="#354DBC" offset="47.5036588%"></stop>
            <stop stop-color="#7A39A5" offset="100%"></stop>
        </linearGradient>
        <linearGradient x1="39.5185264%" y1="50.0039431%" x2="61.811956%" y2="50%" id="linearGradient-2">
            <stop stop-color="#1A389C" offset="0%"></stop>
            <stop stop-color="#354DBC" offset="47.5036588%"></stop>
            <stop stop-color="#7A39A5" offset="100%"></stop>
        </linearGradient>
        <linearGradient x1="12.094949%" y1="50.0039431%" x2="92.7165883%" y2="50%" id="linearGradient-3">
            <stop stop-color="#1A389C" offset="0%"></stop>
            <stop stop-color="#354DBC" offset="47.5036588%"></stop>
            <stop stop-color="#7A39A5" offset="100%"></stop>
        </linearGradient>
        <linearGradient x1="11.0652562%" y1="50.000687%" x2="93.8769867%" y2="50%" id="linearGradient-4">
            <stop stop-color="#1A389C" offset="0%"></stop>
            <stop stop-color="#354DBC" offset="47.5036588%"></stop>
            <stop stop-color="#7A39A5" offset="100%"></stop>
        </linearGradient>
        <linearGradient x1="30.8226756%" y1="50.0039431%" x2="71.6116282%" y2="50%" id="linearGradient-5">
            <stop stop-color="#1A389C" offset="0%"></stop>
            <stop stop-color="#354DBC" offset="47.5036588%"></stop>
            <stop stop-color="#7A39A5" offset="100%"></stop>
        </linearGradient>
        <linearGradient x1="11.0652562%" y1="50.0008995%" x2="93.8769867%" y2="50%" id="linearGradient-6">
            <stop stop-color="#1A389C" offset="0%"></stop>
            <stop stop-color="#354DBC" offset="47.5036588%"></stop>
            <stop stop-color="#7A39A5" offset="100%"></stop>
        </linearGradient>
        <linearGradient x1="19.1712619%" y1="50.0039431%" x2="84.7420324%" y2="50%" id="linearGradient-7">
            <stop stop-color="#1A389C" offset="0%"></stop>
            <stop stop-color="#354DBC" offset="47.5036588%"></stop>
            <stop stop-color="#7A39A5" offset="100%"></stop>
        </linearGradient>
        <linearGradient x1="43.3984085%" y1="50.0039431%" x2="57.4395749%" y2="50%" id="linearGradient-8">
            <stop stop-color="#1A389C" offset="0%"></stop>
            <stop stop-color="#354DBC" offset="47.5036588%"></stop>
            <stop stop-color="#7A39A5" offset="100%"></stop>
        </linearGradient>
        <linearGradient x1="11.0652562%" y1="50.0004233%" x2="93.8769867%" y2="50%" id="linearGradient-9">
            <stop stop-color="#1A389C" offset="0%"></stop>
            <stop stop-color="#354DBC" offset="47.5036588%"></stop>
            <stop stop-color="#7A39A5" offset="100%"></stop>
        </linearGradient>
    </defs>
    <g id="Page-1" stroke="none" stroke-width="1" fill="none" fill-rule="evenodd">
        <g id="meera_gpt" fill-rule="nonzero">
            <path d="M3.74881838,9.8386869 C3.15065769,9.03600416 2.50671248,8.27719976 1.78033043,7.59160844 C1.69832552,7.51412511 1.66031572,7.436518 1.66895431,7.32530591 C1.69727655,6.9622111 1.69110613,6.59354641 1.75324227,6.23664037 C1.85585639,5.64753189 2.0286282,5.07705158 2.26976828,4.52445681 C2.70725118,3.52175321 3.33712784,2.66590898 4.14835319,1.94182355 C4.71368723,1.4371917 5.3394297,1.01994521 6.04088325,0.73068236 C6.42813892,0.571012239 6.82841418,0.442781042 7.22480208,0.306071236 C7.32285008,0.272280583 7.4284877,0.260707593 7.53060818,0.238861255 C7.5280166,0.212002018 7.52542502,0.185080893 7.52289515,0.158221655 C7.20555036,0.147391318 6.88826727,0.134271137 6.57092248,0.127525384 C6.50070308,0.126040081 6.43029857,0.153146869 6.35946213,0.156612577 C5.94555023,0.176787948 5.54940916,0.280511639 5.15160206,0.389372005 C4.52024451,0.562100419 3.93158627,0.830012029 3.36341384,1.14836207 C2.83565766,1.44406123 2.34517084,1.79075581 1.88689361,2.18918846 C1.38357231,2.62679599 0.948927797,3.11756501 0.60560553,3.68922117 C0.410435089,4.01419319 0.233158872,4.35092386 0.187312638,4.73258496 C0.15207953,5.02574673 0.104814099,5.33017205 0.147266601,5.61708316 C0.216190212,6.083716 0.467141265,6.47441269 0.820336207,6.79096799 C1.05326963,6.99983879 1.29249688,7.20177817 1.52333236,7.4130007 C1.57133824,7.45694093 1.59447732,7.52811172 1.62915509,7.5867812 C1.61471631,7.59841608 1.60027752,7.61005096 1.58590044,7.62168583 C1.55412276,7.59600246 1.52166635,7.57106174 1.49062912,7.54451194 C1.23745672,7.32796708 0.97749685,7.11878684 0.73333326,6.89240184 C0.425799439,6.60728547 0.170652499,6.27637223 0.0747641448,5.8598065 C-0.0971438057,5.11300831 0.0321882346,4.41144998 0.413458596,3.74553893 C0.972128583,2.76975645 1.76441074,2.02617641 2.68398869,1.40822828 C3.29973508,0.994385611 3.95379979,0.652889592 4.65796832,0.409856815 C5.201891,0.222151591 5.75574806,0.101223135 6.32756105,0.0256583223 C6.75350526,-0.0306594336 7.16439365,0.0181080298 7.58108223,0.0541266385 C7.67363855,0.0621101445 7.7636033,0.101161248 7.89059058,0.135632665 C7.79414689,0.155127273 7.73380017,0.167319139 7.67345344,0.179572892 C7.66907244,0.194982916 7.66469144,0.210392939 7.66031044,0.225802962 C8.22663175,0.386958387 8.77783553,0.578810083 9.2851059,0.882740301 C9.79614024,1.18896036 10.270152,1.54141049 10.7265164,1.9420711 C8.39582472,1.38433965 6.34928093,1.87238561 4.74805648,3.68711699 C3.14769589,5.50092006 2.91544122,7.59365073 3.74881838,9.8386869" id="Fill-1" fill="url(#linearGradient-1)"></path>
            <path d="M12.4544073,2.84041976 C12.6848726,2.91072412 12.9150293,2.98226624 13.1459265,3.05102341 C13.4619138,3.14515452 13.7795671,3.23377762 14.0945671,3.33118878 C14.3796406,3.41931678 14.6620608,3.51604717 14.9455917,3.60912618 C15.0032851,3.6280638 15.0596211,3.65306641 15.1185486,3.6661247 C15.4266995,3.73413922 15.5091363,4.00594976 15.606629,4.24192734 C15.8057485,4.72384642 15.9935761,5.21207805 16.1520325,5.70860261 C16.2362588,5.97273908 16.2705663,6.25816489 16.2900649,6.53665929 C16.3248661,7.03287441 16.3395517,7.53100806 16.3457221,8.02858472 C16.3483137,8.23188562 16.3233235,8.43951867 16.2779709,8.63755913 C16.2582872,8.72370673 16.1677671,8.80787393 16.0888474,8.86375847 C15.6042842,9.20711112 15.1110207,9.53821001 14.6265809,9.88174832 C14.4246847,10.0248944 14.2373507,10.188711 14.0233604,10.3406452 C14.6884085,9.05882832 14.9229462,7.70546933 14.6218296,6.29436916 C14.3219472,4.88890077 13.5991439,3.72887877 12.4544073,2.84041976" id="Fill-4" fill="url(#linearGradient-2)"></path>
            <path d="M12.2792433,6.67070672 C12.3434352,6.47779902 12.3761768,6.27582104 12.3762132,6.07251344 C12.3761896,5.73609778 12.2865787,5.40575674 12.1165918,5.11544665 C11.7750211,4.52088908 11.1413996,4.15381533 10.4556574,4.15381533 C10.3205598,4.15381697 10.1858401,4.16808508 10.0537392,4.19638229 C9.69434125,3.7914588 9.17882041,3.5597089 8.63740565,3.5597089 L8.62538393,3.5597089 L8.62087247,3.5597089 C7.79031237,3.5597089 7.05374991,4.09567055 6.79842772,4.88576018 C6.26374261,4.99527191 5.80228558,5.33010851 5.5323258,5.804453 C5.36285697,6.09651036 5.27355122,6.42815465 5.27344752,6.76581895 C5.27344752,7.24036615 5.44966576,7.69800775 5.76779756,8.05012593 C5.70358001,8.24302806 5.67082904,8.4450088 5.67080114,8.64831921 C5.67083109,8.98473402 5.76044151,9.31507342 5.93042249,9.605386 C6.34516932,10.3275052 7.17891894,10.6989747 7.99316892,10.5244238 C8.35261349,10.9293483 8.86816223,11.1611238 9.40960866,11.1611238 L9.42163038,11.1611238 L9.42651337,11.1611238 C10.2575246,11.1611238 10.9938482,10.6251356 11.2491704,9.83432941 C11.7838531,9.72477961 12.2453072,9.38994241 12.5152989,8.91561005 C12.684584,8.62380981 12.773673,8.29244305 12.773673,7.95509332 C12.773673,7.48055385 12.5974551,7.02292022 12.2793229,6.67081287 L12.2792433,6.67070672 L12.2792433,6.67070672 Z M9.42210806,10.664173 L9.42014425,10.664173 C9.08762103,10.6640626 8.76565449,10.5474064 8.5102355,10.3344913 C8.52540291,10.3263249 8.54039156,10.3178307 8.55519089,10.3090148 L10.0687067,9.43477314 C10.1455939,9.39100421 10.1930875,9.30934913 10.1931169,9.22087678 L10.1931169,7.08565504 L10.8328421,7.4550376 C10.839662,7.45843705 10.8443323,7.46501929 10.8452885,7.47257923 L10.8452885,9.23963915 C10.8444127,10.0252704 10.2077924,10.6625807 9.42210806,10.664173 L9.42210806,10.664173 Z M6.36150592,9.35699023 C6.23648814,9.14082434 6.17062221,8.89553873 6.1705384,8.64582464 C6.1705384,8.56437949 6.17765059,8.48272203 6.19150343,8.40247109 C6.20275555,8.40921174 6.22239367,8.42120693 6.23648536,8.42930102 L7.75000113,9.30354268 C7.82682604,9.34839353 7.92185654,9.34837325 7.99866229,9.3034896 L9.84653045,8.23652891 L9.84653045,8.97532057 L9.84653045,8.9765944 C9.84653045,8.98380675 9.84314096,8.99059974 9.83737484,8.99493216 L8.30735242,9.87832943 C8.09086214,10.0029269 7.84546765,10.0685375 7.59568261,10.068607 C7.08678482,10.068535 6.61647558,9.79732795 6.36150592,9.35691061 L6.36150592,9.35699023 L6.36150592,9.35699023 Z M5.96332962,6.05284877 C6.12956189,5.76411502 6.3920397,5.54303657 6.70482815,5.42830325 C6.70482815,5.44133341 6.70408509,5.46442148 6.70408509,5.48045044 L6.70408509,7.22896029 L6.70405855,7.23039335 C6.70407227,7.31877263 6.75149274,7.40035286 6.82828298,7.44410394 L8.6761246,8.5109054 L8.03642587,8.88028796 C8.03001632,8.88451316 8.02191754,8.88525032 8.01485047,8.88225177 L6.48466882,7.99811143 C6.04443346,7.7430828 5.77337498,7.27286385 5.77331747,6.76409398 C5.77341368,6.51449608 5.83895724,6.26928647 5.96340923,6.05292839 L5.96332962,6.05284877 L5.96332962,6.05284877 Z M11.2193152,7.27595911 L9.37147354,6.20902496 L10.0111988,5.83977509 C10.0176067,5.83554525 10.0257079,5.83480788 10.0327742,5.83781128 L11.5629293,6.72120855 C12.0035412,6.97584864 12.2749662,7.44608597 12.2750768,7.95498717 C12.2750768,8.55180047 11.9026689,9.08582484 11.3427169,9.29194557 L11.3427169,7.49115583 C11.3427965,7.49049238 11.3427965,7.48980239 11.3427965,7.48913894 C11.3427725,7.40109604 11.2956747,7.31978575 11.2193152,7.27595911 L11.2193152,7.27595911 Z M11.8560416,6.31764504 C11.8411646,6.3085305 11.8261784,6.29959539 11.8110862,6.29084165 L10.2975705,5.41657345 C10.2598337,5.39458426 10.2169424,5.38299151 10.1732664,5.38297633 C10.1295905,5.38299151 10.0866991,5.39458426 10.0489624,5.41657345 L8.20106769,6.48353414 L8.20106769,5.74474248 L8.20106769,5.74346866 C8.20106769,5.73625032 8.20449109,5.72945659 8.21024984,5.72513089 L9.74027226,4.84247668 C9.95669131,4.71770875 10.2021071,4.65201339 10.4519155,4.65201339 C11.2386083,4.65201339 11.8765821,5.28998714 11.8765821,6.07667991 C11.876544,6.1574108 11.8696726,6.23799361 11.8560416,6.31756542 L11.8560416,6.31764504 L11.8560416,6.31764504 Z M7.85328707,7.63440801 L7.21342911,7.26502545 C7.20660925,7.261626 7.20193894,7.25504376 7.20098279,7.24748383 L7.20098279,5.48039736 C7.20132778,4.69412921 7.83930154,4.05668621 8.62564931,4.05668621 C8.95869144,4.05675527 9.28119885,4.17342467 9.53720341,4.38644752 C9.52568591,4.39273703 9.50559664,4.40382992 9.49224802,4.41192401 L7.97873224,5.28616567 C7.90185577,5.32990284 7.85436783,5.41153507 7.85434859,5.49998241 L7.85434859,5.50138893 L7.85328707,7.63440801 L7.85328707,7.63440801 Z M8.20080231,6.88516038 L9.02379907,6.40981154 L9.84679583,6.88484192 L9.84679583,7.83522113 L9.02379907,8.31027804 L8.20080231,7.83522113 L8.20080231,6.88516038 Z" id="Shape" fill="url(#linearGradient-3)"></path>
            <path d="M10.9947447,14.6413475 C10.8245027,14.6674022 10.6535203,14.6893723 10.4842657,14.7206875 C10.3345712,14.7483513 10.1883322,14.8025648 10.0378974,14.8164896 C9.69155159,14.8486093 9.3436015,14.8809765 8.99626846,14.8808535 C8.50164745,14.8807289 8.00826053,14.8453292 7.52641229,14.7131372 C7.32642892,14.6582429 7.11725162,14.6342305 6.92134073,14.5688152 C6.81829469,14.5344057 6.70753562,14.4596454 6.6473123,14.3709604 C6.3444063,13.9248124 6.05223683,13.4709903 5.76531221,13.0141357 C5.45716135,12.5233667 5.15900657,12.0262233 4.85690272,11.5315553 C4.84703005,11.5153408 4.84246393,11.4958461 4.84297975,11.4671303 C5.96591263,12.5736195 7.28675311,13.202336 8.87866022,13.2394686 C10.4755037,13.2766631 11.8266409,12.7071111 13.021358,11.6665942 C12.9674902,11.7523085 12.9148565,11.8388894 12.8595695,11.9236754 C12.5263668,12.4353625 12.2024196,12.9535477 11.8554568,13.4556422 C11.6126507,13.8069783 11.3368946,14.1352923 11.0787858,14.4761694 C11.040776,14.5264222 11.0191178,14.5891144 10.9899317,14.646051 L10.9947447,14.6413475 Z" id="Fill-6" fill="url(#linearGradient-4)"></path>
            <path d="M1.72840016,7.83397283 C1.89672926,8.01010506 2.06789676,8.18357613 2.23283214,8.36280275 C2.9257088,9.11560405 3.54818095,9.92299025 4.08938864,10.792326 C4.69094306,11.7587015 5.28861011,12.7274907 5.89016453,13.6939282 C5.98987854,13.8540315 6.10211852,14.0062751 6.20590501,14.1639029 C6.23521451,14.2084001 6.25533009,14.2590242 6.26693048,14.3178175 C5.05333193,13.8468525 4.05563643,13.0840254 3.24866867,12.0745142 C2.08338452,10.6168126 1.63504168,8.79954385 1.72840016,7.83397283" id="Fill-8" fill="url(#linearGradient-5)"></path>
            <path d="M8.25067789,0.152868374 C11.0364382,-0.129772495 13.6638655,1.17407638 15.112372,3.3918201 C14.9872359,3.35840077 14.8875218,3.33544046 14.7900909,3.3051774 C14.2775756,3.14606427 13.7628391,2.99326367 13.2542112,2.82245378 C12.7320084,2.64712608 12.1989457,2.48980769 11.7029055,2.25568674 C11.3402698,2.0845674 11.0206419,1.8141184 10.6982991,1.56638216 C10.1399376,1.13725324 9.56473091,0.736716406 8.92800509,0.433466951 C8.74634787,0.346948025 8.55037527,0.290630269 8.362054,0.217664737 C8.3225016,0.202316602 8.28770042,0.1747766 8.25067789,0.152868374" id="Fill-10" fill="url(#linearGradient-6)"></path>
            <path d="M16.1699514,9.16820854 C15.9950817,9.99620333 15.6678025,10.7670758 15.2054528,11.4723474 C14.2888367,12.8705131 13.0543204,13.8792817 11.4394593,14.4604066 C11.6411704,14.1811077 11.8299853,13.9362802 12.0009677,13.6795702 C12.4319099,13.0328443 12.8574839,12.3824671 13.2799727,11.7301094 C13.5857171,11.2579686 13.8907211,10.7839093 14.3316594,10.4250847 C14.6427721,10.1719024 14.9711619,9.93957614 15.2968368,9.70489819 C15.5443941,9.52641423 15.7996644,9.35869871 16.0518496,9.18671295 C16.075544,9.17056027 16.10183,9.15830652 16.1269436,9.14425802 L16.1699514,9.16820854 Z" id="Fill-12" fill="url(#linearGradient-7)"></path>
            <path d="M16.2975002,8.82869912 C16.3327333,8.78618231 16.363894,8.73920959 16.40394,8.70182945 C16.7086354,8.4170844 17.0046923,8.12887364 17.1931987,7.74430382 C17.4285385,7.26424137 17.4827766,6.76740737 17.3639342,6.25194518 C17.2922956,5.94108355 17.222755,5.62644676 17.1121193,5.32845776 C16.8438911,4.60579574 16.3033004,4.13910102 15.6265286,3.81084896 C15.5245932,3.76140073 15.4319752,3.69251978 15.3350378,3.63261254 C15.3494149,3.60835259 15.363792,3.58403074 15.3781691,3.5597089 C15.6810751,3.73584113 15.9931133,3.89811054 16.2845424,4.09169509 C16.6417481,4.3290342 16.9154063,4.65443943 17.0944102,5.04402215 C17.2185591,5.31403794 17.3176561,5.59865921 17.3966992,5.88544655 C17.4624759,6.12433286 17.5051752,6.3745446 17.5190586,6.6219714 C17.5608324,7.36895526 17.285755,7.99618653 16.75442,8.51319591 C16.6248411,8.63926104 16.4842172,8.75387696 16.348653,8.87375332 C16.3316227,8.85871463 16.3145306,8.84373782 16.2975002,8.82869912" id="Fill-14" fill="url(#linearGradient-8)"></path>
            <path d="M10.9899194,14.646051 C11.0241652,14.6524254 11.0584111,14.6587998 11.1353562,14.6730959 C11.0088009,14.8073921 10.91427,14.9349425 10.7940702,15.0297544 C10.4990006,15.2624519 10.2047332,15.5004718 9.8868948,15.6987598 C9.43904559,15.9781825 8.93047942,16.057213 8.4151875,15.9885796 C8.12092009,15.9493429 7.84343622,15.8141184 7.60093865,15.6300645 C7.20183577,15.3271864 6.86030292,14.9689807 6.60170054,14.5264841 C6.64526372,14.5605842 6.69425687,14.5895476 6.73152622,14.6295889 C6.93632252,14.8495995 7.1292099,15.0816162 7.34307672,15.2923437 C7.8226419,15.764732 8.40130405,15.9849283 9.07153527,15.8839276 C9.47674686,15.8228445 9.85554906,15.660637 10.1826431,15.4086924 C10.4358772,15.2135607 10.6697979,14.9929312 10.9085315,14.7794189 C10.9472818,14.7446999 10.9664718,14.6880108 10.9947323,14.6414094 C10.9947323,14.6413475 10.9899194,14.646051 10.9899194,14.646051" id="Fill-17" fill="url(#linearGradient-9)"></path>
        </g>
    </g>
</svg>