<?xml version="1.0" encoding="utf-8"?>
<svg viewBox="290.82 232.412 62.175 67.778" xmlns="http://www.w3.org/2000/svg">
    <path d="M 349.486 232.412 L 336.33 256.687 L 326.598 250.7 L 322.486 257.872 L 345.245 271.888 L 349.362 264.707 L 339.795 258.815 L 352.995 234.448 L 349.486 232.412 Z M 306.933 245.948 C 304.705 245.948 302.905 247.817 302.905 250.12 C 302.905 252.423 304.705 254.292 306.933 254.292 C 309.156 254.292 310.961 252.423 310.961 250.12 C 310.961 247.817 309.156 245.948 306.933 245.948 Z M 292.834 250.12 C 291.718 250.12 290.82 251.055 290.82 252.206 C 290.82 253.358 291.718 254.292 292.834 254.292 C 293.946 254.292 294.848 253.358 294.848 252.206 C 294.848 251.055 293.946 250.12 292.834 250.12 Z M 298.876 258.465 C 296.649 258.465 294.848 260.334 294.848 262.637 C 294.848 264.941 296.649 266.81 298.876 266.81 C 301.1 266.81 302.905 264.941 302.905 262.637 C 302.905 260.334 301.1 258.465 298.876 258.465 Z M 319.017 262.637 C 314.51 269.163 306.268 274.366 290.82 275.155 L 290.82 279.327 C 299.332 293.397 310.961 300.19 327.074 300.19 L 331.102 300.19 C 336.383 293.568 340.596 287.539 343.186 279.327 L 343.186 275.155 L 323.046 262.637 L 319.017 262.637 Z M 321.148 267.235 L 338.582 278.071 C 336.274 284.526 332.653 290.188 328.173 295.888 C 314.989 296.017 303.114 289.93 296.162 278.618 C 308.721 277.325 316.379 273.256 321.148 267.235 Z" fill="#232629" style=""/>
</svg>