<?xml version="1.0" encoding="UTF-8"?>
<svg width="600" height="666.67" fill="none" version="1.1" viewBox="0 0 18 20"
    xmlns="http://www.w3.org/2000/svg">
    <g fill="#1c274c">
        <path d="m0 4.5238c0-0.39449 0.32671-0.71429 0.72973-0.71429h4.7881c0.0065-0.84122 0.09767-1.9945 0.9325-2.7928 0.65703-0.62829 1.5577-1.0167 2.5496-1.0167s1.8926 0.38839 2.5496 1.0167c0.8348 0.79836 0.926 1.9516 0.9325 2.7928h4.7882c0.403 0 0.7297 0.3198 0.7297 0.71429s-0.3267 0.71429-0.7297 0.71429h-16.541c-0.40302 0-0.72973-0.3198-0.72973-0.71429z"/>
        <path d="m8.5956 20h0.8088c2.7827 0 4.1741 0 5.0787-0.8859 0.9047-0.8859 0.9972-2.3391 1.1823-5.2456l0.2667-4.1879c0.1005-1.577 0.1507-2.3655-0.3032-2.8651-0.4538-0.49966-1.2202-0.49966-2.7529-0.49966h-7.752c-1.5328 0-2.2992 0-2.753 0.49966s-0.40361 1.2881-0.30317 2.8651l0.26671 4.1879c0.18511 2.9065 0.27766 4.3597 1.1823 5.2456s2.296 0.8859 5.0787 0.8859z" opacity=".5"/>
        <path d="m6.4254 9.4815c0.41216-0.0434 0.77967 0.2732 0.82087 0.707l0.5 5.2632c0.0412 0.4338-0.2595 0.8207-0.6716 0.8641-0.41217 0.0434-0.77971-0.2732-0.82092-0.707l-0.5-5.2632c-0.04122-0.4338 0.25949-0.8207 0.67165-0.8641z" clip-rule="evenodd" fill-rule="evenodd"/>
        <path d="m11.575 9.4815c0.4121 0.0434 0.7128 0.4303 0.6716 0.8641l-0.5 5.2632c-0.0412 0.4338-0.4087 0.7504-0.8209 0.707-0.4121-0.0434-0.7128-0.4303-0.6716-0.8641l0.5-5.2632c0.0412-0.4338 0.4087-0.7504 0.8209-0.707z" clip-rule="evenodd" fill-rule="evenodd"/>
    </g>
</svg>
